<?xml version="1.0" encoding="UTF-8" standalone="no"?>
<svg
   width="100%"
   height="100%"
   viewBox="0 0 900 1800"
   version="1.1"
   xml:space="preserve"
   style="fill-rule:evenodd;clip-rule:evenodd;stroke-linecap:round;stroke-linejoin:round;stroke-miterlimit:1.5;"
   id="svg9"
   sodipodi:docname="170x160-0.5cell.svg"
   inkscape:export-filename="170x160-0.5cell.png"
   inkscape:export-xdpi="96"
   inkscape:export-ydpi="96"
   inkscape:version="1.3.2 (091e20e, 2023-11-25, custom)"
   xmlns:inkscape="http://www.inkscape.org/namespaces/inkscape"
   xmlns:sodipodi="http://sodipodi.sourceforge.net/DTD/sodipodi-0.dtd"
   xmlns="http://www.w3.org/2000/svg"
   xmlns:svg="http://www.w3.org/2000/svg"><defs
   id="defs9" /><sodipodi:namedview
   id="namedview9"
   pagecolor="#ffffff"
   bordercolor="#111111"
   borderopacity="1"
   inkscape:showpageshadow="0"
   inkscape:pageopacity="0"
   inkscape:pagecheckerboard="1"
   inkscape:deskcolor="#d1d1d1"
   inkscape:zoom="0.45166667"
   inkscape:cx="450.55351"
   inkscape:cy="900"
   inkscape:window-width="1920"
   inkscape:window-height="1009"
   inkscape:window-x="2552"
   inkscape:window-y="-8"
   inkscape:window-maximized="1"
   inkscape:current-layer="svg9" />
    <g
   transform="matrix(1,0,0,1,90.7553,385.593)"
   id="g9">
        <g
   transform="matrix(1.99971,0,0,2.00052,-359.138,-514.668)"
   id="g3">
            <g
   transform="matrix(0.101668,-0.101668,1.12119,1.12119,-359.306,-118.655)"
   id="g1">
                <path
   d="M559.525,543.093C559.525,539.473 527.114,536.534 487.192,536.534L75.452,536.534C35.531,536.534 3.119,539.473 3.119,543.093L3.119,637.189C3.119,640.809 35.531,643.748 75.452,643.748L487.192,643.748C527.114,643.748 559.525,640.809 559.525,637.189L559.525,543.093Z"
   id="path1" />
            </g>
            <g
   transform="matrix(0.101668,0.101668,-1.05524,1.05524,985.207,-133.404)"
   id="g2">
                <path
   d="M559.525,543.503C559.525,539.657 527.114,536.534 487.192,536.534L75.452,536.534C35.531,536.534 3.119,539.657 3.119,543.503L3.119,636.779C3.119,640.626 35.531,643.748 75.452,643.748L487.192,643.748C527.114,643.748 559.525,640.626 559.525,636.779L559.525,543.503Z"
   id="path2" />
            </g>
        </g>
        <g
   transform="matrix(2.02712,0,0,1.87252,-369.053,-452.554)"
   id="g4">
            <path
   d="M370.263,482.584C370.263,482.584 364.426,490.11 355.344,482.976"
   style="fill:none;stroke:black;stroke-width:1.02px;"
   id="path3" />
        </g>
        <g
   transform="matrix(1.99971,0,0,2.00052,-375.702,-513.919)"
   id="g5">
            <rect
   x="355.276"
   y="485.303"
   width="14.694"
   height="6.16"
   id="rect4" />
        </g>
        <g
   transform="matrix(1.99971,0,0,2.00052,-341.075,-513.919)"
   id="g6">
            <rect
   x="355.276"
   y="485.303"
   width="14.694"
   height="6.16"
   id="rect5" />
        </g>
        <g
   transform="matrix(1.99971,0,0,2.00052,-357.473,-512.92)"
   id="g7">
            <rect
   x="355.276"
   y="485.303"
   width="14.694"
   height="6.16"
   id="rect6" />
        </g>
        <g
   transform="matrix(1.99971,0,0,2.00052,-359.138,-514.668)"
   id="g8">
            <rect
   x="364.1"
   y="488.633"
   width="0.083"
   height="1.041"
   id="rect7" />
        </g>
    </g>
</svg>
