<?xml version="1.0" encoding="UTF-8" standalone="no"?>
<svg
   width="100%"
   height="100%"
   viewBox="0 0 450 900"
   version="1.1"
   xml:space="preserve"
   style="fill-rule:evenodd;clip-rule:evenodd;stroke-linecap:round;stroke-linejoin:round;stroke-miterlimit:1.5;"
   id="svg5"
   sodipodi:docname="200x190-1cell.svg"
   inkscape:export-filename="200x190-1cell.png"
   inkscape:export-xdpi="96"
   inkscape:export-ydpi="96"
   inkscape:version="1.3.2 (091e20e, 2023-11-25, custom)"
   xmlns:inkscape="http://www.inkscape.org/namespaces/inkscape"
   xmlns:sodipodi="http://sodipodi.sourceforge.net/DTD/sodipodi-0.dtd"
   xmlns="http://www.w3.org/2000/svg"
   xmlns:svg="http://www.w3.org/2000/svg"><defs
   id="defs5" /><sodipodi:namedview
   id="namedview5"
   pagecolor="#ffffff"
   bordercolor="#111111"
   borderopacity="1"
   inkscape:showpageshadow="0"
   inkscape:pageopacity="0"
   inkscape:pagecheckerboard="1"
   inkscape:deskcolor="#d1d1d1"
   inkscape:zoom="0.90333333"
   inkscape:cx="225.27675"
   inkscape:cy="450"
   inkscape:window-width="1920"
   inkscape:window-height="1009"
   inkscape:window-x="2552"
   inkscape:window-y="-8"
   inkscape:window-maximized="1"
   inkscape:current-layer="svg5" />
    <g
   transform="matrix(1,0,0,1,-8.98383,-5.61268)"
   id="g5">
        <g
   transform="matrix(0.301498,-0.301498,0.81065,0.81065,-228.033,147.182)"
   id="g1">
            <path
   d="M319.392,372.595C319.392,370.187 314.138,368.233 307.666,368.233L96.588,368.233C90.116,368.233 84.861,370.187 84.861,372.595L84.861,538.326C84.861,540.733 90.116,542.687 96.588,542.687L307.666,542.687C314.138,542.687 319.392,540.733 319.392,538.326L319.392,372.595Z"
   id="path1" />
        </g>
        <g
   transform="matrix(0.301498,0.301498,-0.770118,0.770118,559.194,47.6019)"
   id="g2">
            <path
   d="M319.392,372.824C319.392,370.29 314.138,368.233 307.666,368.233L96.588,368.233C90.116,368.233 84.861,370.29 84.861,372.824L84.861,538.097C84.861,540.63 90.116,542.687 96.588,542.687L307.666,542.687C314.138,542.687 319.392,540.63 319.392,538.097L319.392,372.824Z"
   id="path2" />
        </g>
        <g
   transform="matrix(1.03612,0,0,0.961786,-8.63186,16.1057)"
   id="g3">
            <path
   d="M233.924,416.665C233.924,416.665 237.337,420.461 241.3,416.848"
   style="fill:none;stroke:black;stroke-width:0.54px;"
   id="path3" />
        </g>
        <g
   transform="matrix(1,0,0,1,-0.0520312,-0.8325)"
   id="g4">
            <rect
   x="232.181"
   y="419.36"
   width="10.953"
   height="2.94"
   style="stroke:black;stroke-width:0.54px;"
   id="rect3" />
        </g>
    </g>
</svg>
