<?xml version="1.0" encoding="UTF-8" standalone="no"?>
<svg
   width="100%"
   height="100%"
   viewBox="0 0 900 1800"
   version="1.1"
   xml:space="preserve"
   style="fill-rule:evenodd;clip-rule:evenodd;stroke-linecap:round;stroke-linejoin:round;stroke-miterlimit:1.5;"
   id="svg8"
   sodipodi:docname="200x190-0.5cell.svg"
   inkscape:export-filename="200x190-0.5cell.png"
   inkscape:export-xdpi="96"
   inkscape:export-ydpi="96"
   inkscape:version="1.3.2 (091e20e, 2023-11-25, custom)"
   xmlns:inkscape="http://www.inkscape.org/namespaces/inkscape"
   xmlns:sodipodi="http://sodipodi.sourceforge.net/DTD/sodipodi-0.dtd"
   xmlns="http://www.w3.org/2000/svg"
   xmlns:svg="http://www.w3.org/2000/svg"><defs
   id="defs8" /><sodipodi:namedview
   id="namedview8"
   pagecolor="#ffffff"
   bordercolor="#111111"
   borderopacity="1"
   inkscape:showpageshadow="0"
   inkscape:pageopacity="0"
   inkscape:pagecheckerboard="1"
   inkscape:deskcolor="#d1d1d1"
   inkscape:zoom="0.45166667"
   inkscape:cx="450.55351"
   inkscape:cy="900"
   inkscape:window-width="1920"
   inkscape:window-height="1009"
   inkscape:window-x="2552"
   inkscape:window-y="-8"
   inkscape:window-maximized="1"
   inkscape:current-layer="svg8" />
    <g
   transform="matrix(1.99988,0,0,2.00016,-66.0245,-576.556)"
   id="g8">
        <g
   transform="matrix(1,0,0,1,-104.751,222.512)"
   id="g4">
            <g
   id="g3">
                <g
   transform="matrix(0.127085,-0.127085,1.31905,1.31905,-483.141,-227.043)"
   id="g1">
                    <path
   d="M559.525,541.895C559.525,538.936 534.593,536.534 503.884,536.534L58.76,536.534C28.051,536.534 3.119,538.936 3.119,541.895L3.119,638.388C3.119,641.346 28.051,643.748 58.76,643.748L503.884,643.748C534.593,643.748 559.525,641.346 559.525,638.388L559.525,541.895Z"
   id="path1" />
                </g>
                <g
   transform="matrix(0.127085,0.127085,-1.2531,1.2531,1101.81,-255.94)"
   id="g2">
                    <path
   d="M559.525,542.177C559.525,539.062 534.593,536.534 503.884,536.534L58.76,536.534C28.051,536.534 3.119,539.062 3.119,542.177L3.119,638.106C3.119,641.22 28.051,643.748 58.76,643.748L503.884,643.748C534.593,643.748 559.525,641.22 559.525,638.106L559.525,542.177Z"
   id="path2" />
                </g>
            </g>
        </g>
        <g
   transform="matrix(1.01711,0,0,0.924448,-74.5678,4.24841)"
   id="g5">
            <path
   d="M323.19,748.348C323.19,748.348 330.141,756.007 338.133,748.056"
   style="fill:none;stroke:black;stroke-width:1.03px;"
   id="path4" />
        </g>
        <g
   transform="matrix(1,0,0,1,-62.3069,-55.6057)"
   id="g6">
            <rect
   x="316.856"
   y="754.341"
   width="13.387"
   height="5.728"
   id="rect5" />
        </g>
        <g
   transform="matrix(1,0,0,1,-68.9003,-53.0749)"
   id="g7">
            <rect
   x="320.153"
   y="756.572"
   width="5.095"
   height="1.432"
   id="rect6" />
        </g>
    </g>
</svg>
